inDegrees=no
num_controls=7
num_derivatives=13
num_iterations=400
num_multipliers=7
num_parameters=0
num_slacks=7
num_states=26
objective=0.449375
objective_accelerations=0.047973
objective_balance=0.007477
objective_effort=0.035906
objective_height=0.353060
objective_ligament=0.004959
solver_duration=5633.752476
status=Solve_Succeeded
success=true
DataType=double
version=3
OpenSimVersion=4.5
endheader
time	/jointset/ground_pelvis/pelvis_tilt/value	/jointset/ground_pelvis/pelvis_tx/value	/jointset/ground_pelvis/pelvis_ty/value	/jointset/hip_l/hip_flexion_l/value	/jointset/hip_l/hip_adduction_l/value	/jointset/hip_l/hip_rotation_l/value	/jointset/back/lumbar_extension/value	/jointset/patellofemoral_l/patellar_flexion_l/value	/jointset/knee_l/knee_flexion_l/value	/jointset/knee_l/knee_adduction_l/value	/jointset/knee_l/knee_rotation_l/value	/jointset/ankle_l/ankle_angle_l/value	/jointset/subtalar_l/subtalar_angle_l/value	/jointset/ground_pelvis/pelvis_tilt/speed	/jointset/ground_pelvis/pelvis_tx/speed	/jointset/ground_pelvis/pelvis_ty/speed	/jointset/hip_l/hip_flexion_l/speed	/jointset/hip_l/hip_adduction_l/speed	/jointset/hip_l/hip_rotation_l/speed	/jointset/back/lumbar_extension/speed	/jointset/patellofemoral_l/patellar_flexion_l/speed	/jointset/knee_l/knee_flexion_l/speed	/jointset/knee_l/knee_adduction_l/speed	/jointset/knee_l/knee_rotation_l/speed	/jointset/ankle_l/ankle_angle_l/speed	/jointset/subtalar_l/subtalar_angle_l/speed	/forceset/tau_hip_flexion_l	/forceset/tau_hip_adduction_l	/forceset/tau_hip_rotation_l	/forceset/tau_knee_flexion_l	/forceset/tau_ankle_angle_l	/forceset/tau_subtalar_angle_l	/forceset/tau_lumbar_extension	lambda_cid13_p0	lambda_cid13_p1	lambda_cid13_p2	lambda_cid13_p3	lambda_cid13_p4	lambda_cid13_p5	lambda_cid14_p0	/jointset/ground_pelvis/pelvis_tilt/accel	/jointset/ground_pelvis/pelvis_tx/accel	/jointset/ground_pelvis/pelvis_ty/accel	/jointset/hip_l/hip_flexion_l/accel	/jointset/hip_l/hip_adduction_l/accel	/jointset/hip_l/hip_rotation_l/accel	/jointset/back/lumbar_extension/accel	/jointset/patellofemoral_l/patellar_flexion_l/accel	/jointset/knee_l/knee_flexion_l/accel	/jointset/knee_l/knee_adduction_l/accel	/jointset/knee_l/knee_rotation_l/accel	/jointset/ankle_l/ankle_angle_l/accel	/jointset/subtalar_l/subtalar_angle_l/accel	gamma_cid13_p0	gamma_cid13_p1	gamma_cid13_p2	gamma_cid13_p3	gamma_cid13_p4	gamma_cid13_p5	gamma_cid14_p0
0	-0.1596723971157042	0.05839074363545769	0.8979822200339797	0.3774924667018715	-0.2593775567770158	-0.2688766733430257	-0.01265067647494873	0.03223648243721439	0.03223648243721463	-0.1745329251994329	0.1706211300762659	-0.04231377076293093	-0.009549518260165908	0	0	0	0	0	0	0	0	0	0	0	0	0	0.1422195338095225	-0.02655153517565786	-0.04949234527874503	-0.2912542735168316	0.2987566621643652	-0.08988638593998359	-0.08865506170117098	51.79717853799246	22.52855914978145	4.503939264074698	0.5260093121429344	-590.2169579477172	-30.42555793457328	-38.95154663476256	-4.073568044059785	-2.168516676181264	-1.079013395074879	12.14092658329936	-1.188863512309525	2.916281440250542	-5.697864329592434	8.809173411400348	8.809173411400421	0.1020950224512237	0.1263114908346551	0.8269356862722125	-1.025498088332616	-2.035417465265308e-08	1.030471073692116e-07	5.842521725771612e-08	-3.736021409819729e-09	7.552601080077187e-08	2.19603979630022e-08	-7.337376317756437e-09
0.01	-0.1598694091463559	0.05828393035718834	0.8979294849522569	0.3780845236154387	-0.2594368176853184	-0.2687313031720253	-0.01293657448690604	0.03266684316498659	0.0326668431649869	-0.1745299361983013	0.1706245897840451	-0.04227451517856344	-0.009601078857411989	-0.0392175347340172	-0.02123737000981761	-0.01050693646275313	0.1178453060207606	-0.0117934647773601	0.02894063257103378	-0.05679592626092302	0.08569848373984758	0.08569848373984762	0.0005943401219376044	0.0006965454520019908	0.007859778239873074	-0.01025114240976771	0.1376533227348451	-0.02393940082042582	-0.04886964025164361	-0.2872268732176027	0.2952738799239623	-0.08998049254189032	-0.08467154959747474	50.64176771808193	22.7287944074954	4.521061554794715	0.3871157620197951	-591.3581315802517	-29.48895403532713	-38.96399518293983	-3.818122881522385	-2.082555063987716	-1.030506684405065	11.52141508278522	-1.165800481650924	2.862938254953106	-5.612905354761475	8.394138050553355	8.394138050553327	0.03743282115015458	0.042012649077007	0.7667973771394444	-1.015798558844965	-4.574187726920347e-08	1.084962644376768e-07	9.755054867816123e-08	1.743648572948771e-08	-5.493910344507282e-08	1.924718171783738e-08	-1.495246938281006e-08
0.02	-0.1604530518630379	0.05796850179869965	0.8977728859234008	0.3798380500834775	-0.2596122557456349	-0.2683005298574299	-0.01377892147755643	0.03394297916921298	0.03394297916921298	-0.1745211321362486	0.1706351522616825	-0.04215640211493833	-0.009753326127064975	-0.07732613720602266	-0.04172305604386488	-0.02077278942668678	0.2322939108943545	-0.02323543040278707	0.05708062871899985	-0.1112897957386156	0.1691550552907506	0.1691550552907506	0.001161852807280314	0.001420553971765445	0.01577149585152917	-0.02013733448138012	0.1330871116601689	-0.02132726646519362	-0.04824693522454478	-0.2831994729183724	0.2917910976835599	-0.09007459914379679	-0.08068803749377806	49.56384966102936	22.91767387134704	4.537470403062613	0.1305466015044484	-591.3388355302627	-28.44793337250692	-39.0007625579558	-3.851781591657435	-2.018179881027196	-1.030796695310985	11.46158635386604	-1.118563681922898	2.756154155636999	-5.237452972946345	8.360790973611435	8.360790973611497	0.09672953513224511	0.1318041043869476	0.8373235606288121	-0.9525080207015547	-7.112957988575385e-08	1.139454215061421e-07	1.366758800986063e-07	3.860899286879514e-08	-1.854042176909175e-07	1.653396547267257e-08	-2.256756244786369e-08
0.03	-0.1614122539606872	0.05745163339123606	0.8975145886231924	0.3827197879091833	-0.2599001001834683	-0.2675923773205903	-0.01515441058390807	0.03604271416357754	0.03604271416357754	-0.1745065040901425	0.1706531449618629	-0.04195924595339224	-0.01000245850170393	-0.114297130727782	-0.06155734255646789	-0.0308653107999082	0.3435018049755197	-0.03425811131191708	0.08442064786923575	-0.1634302533113262	0.2504160556591825	0.2504160556591822	0.001766806457523868	0.002174388336482177	0.02362634776211708	-0.02962359045834848	0.12622527213923	-0.02116058379749092	-0.04703374795643194	-0.2758908625381669	0.2822330463230744	-0.08560493351147629	-0.07521312151658684	46.70408572634879	21.50560442019734	4.730172050611992	1.29193439765461	-591.2324739448206	-30.33945877923107	-39.06065882251668	-3.587192587265726	-1.952052795183546	-0.9953134940434309	10.86760262889362	-1.082839033622616	2.703522070948735	-5.145676316374463	7.952375924287416	7.952375924287334	0.04286614594886878	0.04661587979292786	0.7545535004571302	-0.9368847378933636	-8.764925995079098e-08	1.291254766575407e-07	1.582686273489709e-07	5.319305820679038e-08	-2.758781420413549e-07	2.648337161048926e-08	-2.63514940067064e-08
0.04	-0.1627346528645204	0.05673922216688509	0.8971559993821088	0.3866970470144309	-0.2602959151780357	-0.2666147053370019	-0.01703997109937511	0.0389437834327922	0.03894378343279221	-0.1744857289343381	0.1706785645611461	-0.04168454377390363	-0.01034449350645234	-0.149965498442763	-0.08083161942133961	-0.04083117760175726	0.45139816680276	-0.04482954174962961	0.1109845180687455	-0.2133040775616786	0.329421910260748	0.3294219102607475	0.002391274746905865	0.002905933792354582	0.03128069944003836	-0.03871786050327237	0.1193634326182904	-0.02099390112978786	-0.04582056068831993	-0.268582252157961	0.2726749949625893	-0.08113526787915536	-0.06973820553939679	43.91373850178682	20.08426228173089	4.921063117006414	2.343051145320694	-590.0808612057378	-32.13300108224263	-39.1423670241529	-3.591256430301756	-1.906177951480937	-1.005465781036514	10.79927990308107	-1.028313587639399	2.600924365491774	-4.784126308474725	7.909761820238161	7.909761820238266	0.1006324629599347	0.1273463226180823	0.7972235140954784	-0.8741108342926636	-1.039860941900237e-07	1.445061688828143e-07	1.79499878018509e-07	6.764127938393383e-08	-3.655275057753922e-07	3.66938627458932e-08	-3.005643254480251e-08
0.05	-0.1644078395512187	0.05583702976181863	0.8966981673595262	0.3917375097692923	-0.2607950553114372	-0.2653752907801374	-0.01941263431243552	0.04262408116221626	0.04262408116221597	-0.1744584782129408	0.1707113429660901	-0.04133394502023213	-0.01077531336325872	-0.1844718693581173	-0.09949419338770184	-0.05072829172270214	0.5561416017678141	-0.05491705104458237	0.1367716287901365	-0.2608651041308455	0.4062591924834205	0.4062591924834222	0.003052929426981093	0.003642911641651063	0.03882518164237128	-0.04737145538900329	0.1129618015115297	-0.02013449179017393	-0.04486046056677155	-0.2633291151272513	0.2664578145902986	-0.07823525466545179	-0.06454817155089689	42.12970236045525	19.15797193499602	5.044964058612081	2.622417670779605	-589.1463651194093	-32.97725920448613	-39.24417721583696	-3.350339012766938	-1.829383243574899	-0.9808677787589722	10.22894350816325	-0.9867758008163461	2.548563985237189	-4.687571693202718	7.5139509934126	7.513950993412874	0.04807825875580572	0.04582400043485291	0.7309740443433225	-0.8498276264837492	-1.165070517761993e-07	1.534506600262801e-07	1.957701024068798e-07	8.002474019530064e-08	-4.315248060166963e-07	4.093926037669878e-08	-3.266922367180008e-08
0.06	-0.1664200922651936	0.05475159439221632	0.8961415574855073	0.397808820516793	-0.2613926317778669	-0.263881813204104	-0.02225000396360072	0.04706139962789282	0.04706139962789286	-0.174424781687098	0.1707512812463975	-0.04090831875032908	-0.01129043793107649	-0.2177787038980585	-0.1174802123285063	-0.06058674788906641	0.6575677653306955	-0.06451680835526037	0.1617971219025045	-0.3062453651826146	0.4808260575113249	0.4808260575113286	0.003680435636035949	0.004337908864924365	0.04628620268634858	-0.05557880270555201	0.1065601704047663	-0.01927508245055985	-0.04390036044522081	-0.2580759780965426	0.2602406342180079	-0.07533524145174816	-0.0593581375623994	40.40703970677131	18.22412670510458	5.166426272807208	2.800332040591636	-587.2881395278215	-33.7312634664347	-39.36426189763041	-3.351349155219128	-1.770866946369388	-0.9977341901203928	10.13582562264649	-0.9307631907844465	2.448600843687192	-4.347973204995215	7.455678381284552	7.455678381284588	0.09380276875586128	0.1189501974134462	0.7805312824243497	-0.7848613204562259	-1.288673408717199e-07	1.621241532294593e-07	2.118314414781489e-07	9.232126372810843e-08	-4.965262299004115e-07	4.493349617573179e-08	-3.523602964464614e-08
0.07000000000000001	-0.1687598935121336	0.05348961576555235	0.8954863604116832	0.4048788002244612	-0.2620836610894984	-0.2621419287460333	-0.02552991377047244	0.05223360910766568	0.05223360910766559	-0.1743848199357587	0.1707981763259517	-0.04040837661985344	-0.01188528342559356	-0.2499815135294285	-0.1348057596428947	-0.07045753841713297	0.7558849847854411	-0.07360170334483039	0.1860549992744364	-0.3493847103258976	0.5532374588067273	0.553237458806734	0.004302497183620167	0.005031593907386646	0.0536812398442801	-0.06331256699870774	0.09960673755976265	-0.01859754692487593	-0.04286943597528003	-0.2527548802802057	0.2536395996676251	-0.07192640552237539	-0.05380281026242488	38.56252209154081	17.10273740325647	5.30396347070323	3.127044423607855	-585.6701906619799	-34.78959551520734	-39.50049191130914	-3.124748710936212	-1.696917006470357	-0.9825823085000528	9.598174691031133	-0.8842722306962648	2.395634900601517	-4.244132289119294	7.077121136506232	7.077121136506648	0.04503728017482854	0.04312132284081772	0.7158347418722619	-0.7560228140611092	-1.357436328423831e-07	1.657095557800338e-07	2.213332724891963e-07	1.003857335262869e-07	-5.332971263112811e-07	4.745259580026033e-08	-3.65523952269849e-08
0.08	-0.1714157232241554	0.05205767798924512	0.8947322892677083	0.4129156530435051	-0.2628629232665564	-0.2601632147709121	-0.02923066045280196	0.05811858262696012	0.05811858262696004	-0.1743389116824605	0.1708517169889663	-0.03983511515591955	-0.01255514432910535	-0.2809843969144097	-0.1514720422571557	-0.08036156191920951	0.8509423876058888	-0.08216338144051979	0.2095630253125812	-0.3904127402741585	0.6233788654156555	0.6233788654156643	0.004869736027809511	0.005667025556976853	0.06095006937799945	-0.07058188450449804	0.09265330471475704	-0.01792001139919184	-0.04183851150533925	-0.2474337824638692	0.2470385651172423	-0.06851756959300244	-0.04824748296245215	36.77096853876059	15.97565825594334	5.438315557612851	3.362140784620302	-583.2509343722155	-35.76699719994073	-39.65067905354748	-3.111363905941364	-1.639014006343912	-1.004380784922392	9.483862295786908	-0.8261198120083245	2.298630576929754	-3.925710165990766	7.001679443989719	7.001679443989592	0.08283822807688759	0.107299518839031	0.7552897575819107	-0.6919719629831395	-1.422661185469264e-07	1.689666944175371e-07	2.304119094318423e-07	1.081771675996505e-07	-5.682466983690639e-07	4.987652534901438e-08	-3.778808723574254e-08
0.09	-0.1743761304732631	0.05046238661625941	0.8938788502239895	0.4218877725835979	-0.2637251099893382	-0.2579532257497403	-0.03333075649097145	0.0646942559969798	0.06469425599697966	-0.1742874444116597	0.1709115830946752	-0.0391895508389222	-0.01329525110320515	-0.310902993374194	-0.1674714085611047	-0.09033933096189932	0.9429447661367267	-0.09018230340943435	0.2323124123062725	-0.429265638252918	0.6913796396860518	0.6913796396860582	0.005412670791795534	0.006295167106120695	0.06814575854811671	-0.07735729220112331	0.08558131584571414	-0.01723402284337233	-0.0408592965122313	-0.2428082341702694	0.2413388532670227	-0.0652120022690086	-0.04260030488159052	35.24271310522798	14.85473276142701	5.563226429996271	3.432681787263327	-581.1862830148308	-36.72232625403019	-39.81240598763559	-2.903004770353423	-1.563152614239393	-0.9965517987215474	8.977894756810079	-0.7760517861787261	2.244704265954923	-3.813955247795102	6.642858660817045	6.642858660816748	0.03840803275775798	0.0388845750734969	0.6991447387381912	-0.6580496015358794	-1.444491217207586e-07	1.627410389631526e-07	2.356484234033262e-07	1.125572802296271e-07	-5.837634388256039e-07	4.832686391435611e-08	-3.854678197241952e-08
